<svg style="height: 56px; margin-top: 4px;" xmlns:dc="http://purl.org/dc/elements/1.1/" xmlns:cc="http://creativecommons.org/ns#" xmlns:rdf="http://www.w3.org/1999/02/22-rdf-syntax-ns#" xmlns:svg="http://www.w3.org/2000/svg" xmlns="http://www.w3.org/2000/svg" viewBox="0 0 234.33067 75.212532" height="75.212532" width="234.33067" xml:space="preserve" id="svg2" version="1.1"><metadata id="metadata8"><rdf:rdf><cc:work rdf:about=""><dc:format>image/svg+xml</dc:format><dc:type rdf:resource="http://purl.org/dc/dcmitype/StillImage"></dc:type></cc:work></rdf:rdf></metadata><defs id="defs6"></defs><g transform="matrix(1.3333333,0,0,-1.3333333,0,75.212533)" id="g10"><g id="g12"><path id="path14" style="fill:#ff4f4f;fill-opacity:1;fill-rule:evenodd;stroke:none" d="m 38.9004,56.2136 c 7.721,0 14.7115,-3.1298 19.7714,-8.1899 4.316,-4.316 7.2272,-10.036 7.99,-16.4163 -0.0952,-0.0589 -0.1885,-0.1221 -0.2789,-0.1896 h -1.1767 c -0.7206,6.0508 -3.4798,11.4761 -7.5722,15.5682 -4.7939,4.7939 -11.4177,7.7595 -18.7336,7.7595 -3.6159,0 -7.0622,-0.7248 -10.2024,-2.0364 -0.5355,0.3832 -1.1778,0.5905 -1.8409,0.5905 h -0.3985 c 3.7471,1.8652 7.9721,2.914 12.4418,2.914 z M 66.6621,24.8981 C 65.8993,18.5173 62.9881,12.7967 58.6718,8.4804 53.6119,3.4203 46.6214,0.2906 38.9004,0.2906 c -4.4705,0 -8.6958,1.0491 -12.4438,2.9148 h 0.4005 c 0.6628,0 1.3045,0.2072 1.8397,0.5899 3.1405,-1.3119 6.5875,-2.0367 10.2036,-2.0367 7.3162,0 13.9397,2.9653 18.7336,7.7596 4.0927,4.0926 6.8519,9.5181 7.5722,15.5693 h 1.1769 c 0.0905,-0.0672 0.1837,-0.1304 0.279,-0.1894 z M 19.2691,8.3418 19.1288,8.4804 c -2.259,2.2589 -4.1327,4.9025 -5.5154,7.8242 h 1.6347 c 1.2456,-2.461 2.8639,-4.7015 4.7809,-6.647 z m -5.6447,31.8818 c 1.3819,2.9118 3.2517,5.5474 5.5044,7.8001 l 0.1408,0.1392 0.7597,-1.3158 c -1.9111,-1.9392 -3.5249,-4.1718 -4.769,-6.6235 z"></path><path id="path16" style="fill:#ff4f4f;fill-opacity:1;fill-rule:evenodd;stroke:none" d="m 8.3341,35.8353 c -0.6755,0 -1.2234,0.5477 -1.2234,1.2232 0,0.6755 0.5479,1.2231 1.2234,1.2231 h 10.1033 c 0.6755,0 1.2231,-0.5476 1.2231,-1.2231 0,-0.6755 -0.5476,-1.2232 -1.2231,-1.2232 z M 5.7574,22.6434 c -0.6754,0 -1.2234,0.548 -1.2234,1.2232 0,0.6755 0.548,1.2234 1.2234,1.2234 h 10.1189 c 0.6755,0 1.2231,-0.5479 1.2231,-1.2234 0,-0.6752 -0.5476,-1.2232 -1.2231,-1.2232 z m 2.4583,-4.3971 c -0.6755,0 -1.2232,0.5477 -1.2232,1.2232 0,0.6755 0.5477,1.2231 1.2232,1.2231 h 10.2217 c 0.6755,0 1.2231,-0.5476 1.2231,-1.2231 0,-0.6755 -0.5476,-1.2232 -1.2231,-1.2232 z m -6.0574,8.7945 c -0.6755,0 -1.2232,0.5477 -1.2232,1.2232 0,0.6755 0.5477,1.2231 1.2232,1.2231 h 6.4576 c 0.6755,0 1.2234,-0.5476 1.2234,-1.2231 0,-0.6755 -0.5479,-1.2232 -1.2234,-1.2232 z m 3.7457,4.3971 c -0.6755,0 -1.2231,0.5477 -1.2231,1.2232 0,0.6755 0.5476,1.2234 1.2231,1.2234 h 10.002 c 0.6755,0 1.2232,-0.5479 1.2232,-1.2234 0,-0.6755 -0.5477,-1.2232 -1.2232,-1.2232 z"></path><path id="path18" style="fill:#234ba6;fill-opacity:1;fill-rule:evenodd;stroke:none" d="m 46.4026,16.5464 c 2.8049,0.4136 5.5114,1.5863 7.9047,3.2627 3.092,2.1656 5.6551,5.1607 7.236,8.4435 -1.5809,3.2828 -4.144,6.2779 -7.236,8.4436 -2.3933,1.6761 -5.1001,2.8491 -7.9047,3.2624 L 52.808,28.8641 c 0.2291,-0.3958 0.2112,-0.8666 -0.0062,-1.234 z M 12.8684,27.0295 c -0.6755,0 -1.2234,0.5476 -1.2234,1.2231 0,0.6755 0.5479,1.2232 1.2234,1.2232 h 5.7263 l 6.853,11.8698 -4.7213,8.1774 c -0.3376,0.583 -0.1387,1.3297 0.4444,1.6676 0.1928,0.1117 0.4034,0.1647 0.6115,0.1644 v 0.0028 h 5.0748 c 0.2999,0 0.5749,-0.1083 0.7878,-0.2877 l 12.1394,-8.5008 h 4.4081 c 4.0995,0 8.0975,-1.4854 11.5101,-3.8758 3.3792,-2.3664 6.1917,-5.6308 7.9574,-9.2177 h 3.4914 c 0.0525,0.068 0.1092,0.1324 0.1696,0.1927 0.3625,0.3626 0.8631,0.5868 1.4159,0.5868 0.5524,0 1.053,-0.2242 1.4156,-0.5868 0.3625,-0.3625 0.5867,-0.8631 0.5867,-1.4156 0,-0.5527 -0.2242,-1.0533 -0.5867,-1.4159 -0.3626,-0.3623 -0.8632,-0.5868 -1.4156,-0.5868 -0.5528,0 -1.0534,0.2245 -1.4159,0.5868 -0.0604,0.0604 -0.1168,0.1247 -0.1693,0.1925 h -3.4917 c -1.766,-3.587 -4.5782,-6.8514 -7.9574,-9.218 C 52.2899,15.4213 48.2919,13.936 44.1924,13.936 H 39.7843 L 27.6449,5.4351 C 27.432,5.2557 27.157,5.1474 26.8571,5.1474 H 21.7823 V 5.15 c -0.2081,-3e-4 -0.4187,0.053 -0.6115,0.1647 -0.5831,0.3376 -0.782,1.0845 -0.4444,1.6676 l 4.7213,8.1771 -6.853,11.8701 z M 27.4723,22.119 c -0.1307,-0.3101 -0.4882,-0.4555 -0.798,-0.3248 -0.3101,0.1304 -0.4555,0.4878 -0.3251,0.7979 l 0.2727,0.6449 h -3.0195 l 1.8573,-3.217 h 2.4715 l -0.5763,0.3654 c -0.2852,0.1805 -0.3696,0.5584 -0.1888,0.8433 0.1806,0.2851 0.5584,0.3696 0.8433,0.1887 l 2.3318,-1.4779 c 0.1837,-0.1058 0.3078,-0.3042 0.3078,-0.5312 0,-0.1044 -0.026,-0.2024 -0.0722,-0.2883 l -0.6092,-1.4414 c -0.1304,-0.3099 -0.4879,-0.4556 -0.798,-0.3249 -0.3098,0.1304 -0.4555,0.4878 -0.3248,0.798 l 0.2724,0.6448 H 26.166 l 1.3938,-2.4142 h 11.8474 2.6697 L 42.0619,16.4086 35.93,27.0292 H 21.4129 l 1.4831,-2.5688 h 2.5396 l -0.5763,0.3654 c -0.2852,0.1806 -0.3697,0.5585 -0.1888,0.8433 0.1808,0.2852 0.5584,0.3697 0.8433,0.1888 l 2.3318,-1.4782 c 0.1839,-0.1055 0.3078,-0.3039 0.3078,-0.531 0,-0.1043 -0.0261,-0.2024 -0.072,-0.2883 z M 39.4072,40.123 H 27.5598 L 21.4129,29.4758 H 35.93 l 5.5156,9.5533 0.6313,1.0939 z m 1.3578,-16.5867 6.1504,10.6529 -2.723,4.7163 -6.1503,-10.6529 z m 6.8551,9.4326 -6.1507,-10.6532 2.723,-4.716 6.1506,10.6529 z M 26.4801,7.5937 35.5365,13.936 H 27.5593 L 23.8978,7.5937 Z m 9.0564,34.9756 -9.0564,6.3419 h -2.5823 l 3.6615,-6.3419 z"></path></g> </svg>